<!-- Font Awesome Free (SIL OFL 1.1 font); outline from the repository's original icon font. -->
<svg class="profile-icon" viewBox="0 0 496 496" aria-hidden="true" focusable="false" xmlns="http://www.w3.org/2000/svg"><path fill="currentColor" transform="translate(0 446.464) scale(1 -1)" d="M166 51Q165 47 161 47Q155 47 155 51Q156 54 160 54Q165 54 166 51ZM135 55Q134 52 139 50Q144 49 145 52Q146 56 141 57Q136 58 135 55ZM179 57Q174 56 174 52Q175 49 180 49Q185 51 185 54Q184 57 179 57ZM245 440Q138 438 70 370Q2 302 0 196Q1 111 47 47Q93 -17 170 -43Q188 -44 187 -31Q187 -27 187 -16Q187 7 187 30Q185 30 168 28Q150 27 130 32Q110 38 102 60Q102 62 94 76Q86 89 74 97Q72 98 66 105Q59 111 76 112Q77 113 90 108Q103 104 114 86Q132 59 153 59Q175 59 187 65Q191 89 203 99Q159 101 126 121Q93 140 91 210Q91 230 97 243Q102 256 114 268Q112 274 110 292Q108 310 117 336Q135 339 159 325Q184 312 186 309Q186 309 186 309Q216 318 249 318Q281 318 312 309Q312 310 325 318Q337 326 353 332Q369 339 381 336Q390 310 388 292Q386 274 383 268Q395 256 402 243Q409 230 409 210Q408 162 392 139Q375 117 349 109Q323 101 294 99Q310 88 311 53Q311 16 311 -13Q311 -26 311 -31Q310 -44 328 -43Q404 -17 450 47Q495 111 496 196Q495 266 462 321Q428 376 372 408Q315 439 245 440ZM97 95Q95 93 98 90Q101 87 103 89Q105 91 102 94Q100 97 97 95ZM86 103Q86 101 89 99Q92 98 93 100Q94 102 91 104Q88 105 86 103ZM119 68Q117 65 120 61Q124 58 127 60Q128 63 125 67Q121 70 119 68ZM107 82Q105 80 107 76Q110 73 113 74Q115 76 113 80Q110 84 107 82Z"/></svg>
